<svg width="214" height="115" viewBox="0 0 214 115" fill="none" xmlns="http://www.w3.org/2000/svg">
<path d="M50.0425 38.5151C50.0425 40.4702 49.7292 42.2874 49.1025 43.9668C48.4759 45.6211 47.5736 47.1501 46.3955 48.5537C45.2174 49.9323 43.7887 51.1855 42.1094 52.3135C40.43 53.4414 38.5376 54.4315 36.4321 55.2837L53.0503 75.8496L35.6426 77.7671L24.7017 58.5923C23.9246 58.7427 23.1226 58.8805 22.2954 59.0059C21.4683 59.1312 20.6286 59.2565 19.7764 59.3818C19.9769 61.9635 20.215 64.658 20.4907 67.4653C20.7915 70.2726 21.1174 73.2679 21.4683 76.4512L3.68457 77.6919C4.18587 71.2502 4.57438 64.846 4.8501 58.4795C5.15088 52.0879 5.30127 45.6587 5.30127 39.1919C5.30127 37.5125 5.28874 35.9836 5.26367 34.605C5.26367 33.2264 5.23861 31.8854 5.18848 30.582C5.16341 29.2786 5.11328 27.9377 5.03809 26.5591C4.96289 25.1805 4.87516 23.639 4.7749 21.9346C7.80778 21.0072 10.8908 20.3429 14.0239 19.9419C17.1821 19.5409 20.4406 19.3403 23.7993 19.3403C25.4787 19.3403 27.2959 19.4531 29.251 19.6787C31.2061 19.9043 33.1486 20.2928 35.0786 20.8442C37.0337 21.3957 38.901 22.1351 40.6807 23.0625C42.4854 23.9899 44.077 25.168 45.4556 26.5967C46.8592 28.0254 47.9746 29.7173 48.8018 31.6724C49.6289 33.6274 50.0425 35.9084 50.0425 38.5151ZM18.7988 27.2734C18.7988 31.3841 18.8239 35.3569 18.874 39.1919C18.9492 43.0018 19.0996 46.9245 19.3252 50.96H20.8667C23.0724 50.96 25.2907 50.8973 27.5215 50.772C29.7523 50.6466 31.8703 50.4085 33.8755 50.0576C34.2264 48.7041 34.4771 47.1626 34.6274 45.4331C34.8029 43.6785 34.8906 41.8613 34.8906 39.9814C34.8906 38.7783 34.853 37.5752 34.7778 36.3721C34.7026 35.1439 34.6024 33.9658 34.4771 32.8379C34.3517 31.6849 34.1763 30.5946 33.9507 29.5669C33.7502 28.5392 33.5246 27.6118 33.2739 26.7847C32.923 26.7345 32.5094 26.6969 32.0332 26.6719C31.582 26.6468 31.0682 26.6343 30.4917 26.6343C29.3387 26.6343 28.0854 26.6719 26.7319 26.7471C25.4035 26.8223 24.1377 26.8975 22.9346 26.9727C21.556 27.0729 20.1774 27.1732 18.7988 27.2734ZM104.446 78.2935C102.591 78.0428 100.962 77.8172 99.5586 77.6167C98.18 77.4412 96.8766 77.2909 95.6484 77.1655C94.4453 77.0653 93.2673 76.9901 92.1143 76.9399C90.9613 76.8898 89.708 76.8647 88.3545 76.8647C89.0062 74.6841 89.5576 72.4533 90.0088 70.1724C90.485 67.8914 90.861 65.5479 91.1367 63.1416C89.6328 63.0915 88.0913 63.0539 86.5122 63.0288C84.9331 63.0037 83.3665 62.9912 81.8125 62.9912C78.6292 62.9912 75.5713 63.0664 72.6387 63.2168C72.764 65.4727 72.9395 67.7285 73.165 69.9844C73.3906 72.2152 73.6789 74.446 74.0298 76.6768C72.2502 76.8021 70.6585 76.9149 69.2549 77.0151C67.8512 77.1154 66.6105 77.2031 65.5327 77.2783C64.4549 77.3786 63.5275 77.4663 62.7505 77.5415C61.9735 77.6418 61.3092 77.7295 60.7578 77.8047C59.4795 77.9801 58.6147 78.1431 58.1636 78.2935C57.8377 76.6642 57.562 74.9473 57.3364 73.1426C57.1359 71.3379 56.973 69.5457 56.8477 67.7661C56.7474 65.9614 56.6722 64.2069 56.6221 62.5024C56.5719 60.798 56.5469 59.2189 56.5469 57.7651C56.5469 54.7323 56.6597 51.6868 56.8853 48.6289C57.1359 45.571 57.5871 42.6258 58.2388 39.7935C58.9155 36.9611 59.8429 34.3293 61.021 31.8979C62.1991 29.4416 63.7406 27.311 65.6455 25.5063C67.5505 23.6766 69.8564 22.2479 72.5635 21.2202C75.2705 20.1675 78.4788 19.6411 82.1885 19.6411C85.9984 19.6411 89.495 20.2301 92.6782 21.4082C95.8615 22.5612 98.5936 24.3534 100.875 26.7847C103.181 29.216 104.96 32.3115 106.213 36.0713C107.492 39.806 108.131 44.255 108.131 49.4185C108.131 50.7469 108.093 52.4012 108.018 54.3813C107.968 56.3615 107.818 58.5923 107.567 61.0737C107.316 63.5552 106.94 66.2622 106.439 69.1948C105.963 72.1024 105.299 75.1353 104.446 78.2935ZM79.1807 53.4414C81.3613 53.4414 83.5295 53.4038 85.6851 53.3286C87.8657 53.2284 89.9336 53.0654 91.8887 52.8398C91.9388 52.2633 91.9639 51.6868 91.9639 51.1104C91.9639 50.5088 91.9639 49.8947 91.9639 49.2681C91.9639 45.4582 91.7884 41.7861 91.4375 38.252C91.1117 34.7178 90.6229 31.4342 89.9712 28.4014C89.3947 28.3512 88.7555 28.3136 88.0537 28.2886C87.377 28.2635 86.6501 28.251 85.873 28.251C84.8454 28.251 83.7801 28.276 82.6772 28.3262C81.5994 28.3512 80.5342 28.4014 79.4814 28.4766C78.4538 28.5267 77.4637 28.6019 76.5112 28.7021C75.5588 28.8024 74.7316 28.9152 74.0298 29.0405C73.4784 33.0259 73.0648 37.0363 72.7891 41.0718C72.5384 45.0822 72.4131 49.1553 72.4131 53.291C73.4909 53.3662 74.5938 53.4163 75.7217 53.4414C76.8747 53.4414 78.0277 53.4414 79.1807 53.4414ZM166.67 61.3745C166.67 63.7557 166.207 65.8486 165.279 67.6533C164.352 69.4329 163.111 70.9744 161.557 72.2778C160.028 73.5812 158.249 74.659 156.218 75.5112C154.188 76.3384 152.07 77.0026 149.864 77.5039C147.684 78.0052 145.478 78.3561 143.247 78.5566C141.041 78.7572 138.961 78.8574 137.006 78.8574C134.549 78.8574 132.294 78.7822 130.238 78.6318C128.208 78.5065 126.328 78.306 124.599 78.0303C122.869 77.7796 121.265 77.4538 119.786 77.0527C118.332 76.6768 116.941 76.2507 115.613 75.7744C115.838 71.1624 116.014 66.6883 116.139 62.3521C116.29 58.0158 116.365 53.6545 116.365 49.2681C116.365 44.9067 116.29 40.5078 116.139 36.0713C116.014 31.6097 115.838 26.9727 115.613 22.1602C119.047 21.3831 122.518 20.769 126.027 20.3179C129.562 19.8667 133.196 19.6411 136.931 19.6411C138.46 19.6411 140.177 19.7288 142.082 19.9043C143.986 20.0547 145.917 20.3555 147.872 20.8066C149.827 21.2327 151.732 21.8218 153.586 22.5737C155.466 23.3257 157.133 24.2907 158.587 25.4688C160.041 26.6468 161.206 28.0505 162.083 29.6797C162.961 31.3089 163.399 33.2264 163.399 35.4321C163.399 35.4823 163.387 35.7078 163.362 36.1089C163.337 36.4849 163.236 36.9862 163.061 37.6128C162.911 38.2394 162.673 38.9538 162.347 39.7559C162.046 40.5329 161.607 41.3475 161.031 42.1997C160.454 43.0269 159.727 43.854 158.85 44.6812C157.973 45.4832 156.908 46.2227 155.654 46.8994C157.409 47.5762 158.9 48.3657 160.128 49.2681C161.357 50.1453 162.372 51.0853 163.174 52.0879C164.001 53.0654 164.64 54.0555 165.091 55.0581C165.568 56.0356 165.918 56.9505 166.144 57.8027C166.37 58.6549 166.507 59.3944 166.558 60.021C166.633 60.6476 166.67 61.0988 166.67 61.3745ZM150.165 69.6836C150.29 68.3551 150.378 67.0142 150.428 65.6606C150.503 64.2821 150.541 62.8784 150.541 61.4497C150.541 60.0962 150.503 58.7552 150.428 57.4268C150.378 56.0732 150.29 54.7197 150.165 53.3662C149.112 52.9652 147.884 52.6268 146.48 52.3511C145.102 52.0503 143.648 51.8122 142.119 51.6367C140.615 51.4613 139.099 51.3359 137.57 51.2607C136.041 51.1605 134.625 51.1104 133.321 51.1104H131.705C131.504 52.5892 131.341 54.0806 131.216 55.5845C131.116 57.0884 131.065 58.6299 131.065 60.209C131.065 61.9134 131.116 63.6178 131.216 65.3223C131.341 67.0267 131.504 68.7061 131.705 70.3604C132.833 70.3604 134.161 70.3604 135.69 70.3604C137.244 70.3353 138.848 70.3102 140.502 70.2852C142.182 70.235 143.849 70.1724 145.503 70.0972C147.182 69.9969 148.736 69.859 150.165 69.6836ZM147.082 43.8164C147.257 42.6885 147.383 41.4979 147.458 40.2446C147.533 38.9663 147.571 37.6629 147.571 36.3345C147.571 34.9559 147.521 33.5773 147.42 32.1987C147.345 30.7951 147.207 29.429 147.007 28.1006C146.004 28.0254 144.801 27.9627 143.397 27.9126C142.019 27.8374 140.578 27.7998 139.074 27.7998C137.72 27.7998 136.404 27.8249 135.126 27.875C133.848 27.9001 132.707 27.9753 131.705 28.1006C131.554 29.2786 131.429 30.4943 131.329 31.7476C131.253 32.9757 131.216 34.2541 131.216 35.5825C131.216 36.9862 131.253 38.3898 131.329 39.7935C131.429 41.172 131.554 42.5632 131.705 43.9668C132.181 43.9668 132.77 43.9668 133.472 43.9668C134.174 43.9668 134.925 43.9668 135.728 43.9668C136.53 43.9417 137.369 43.9292 138.247 43.9292C139.124 43.9041 139.989 43.8916 140.841 43.8916C142.796 43.8665 144.876 43.8415 147.082 43.8164ZM211.186 52.1255C211.186 54.2811 211.073 56.3991 210.848 58.4795C210.647 60.5348 210.271 62.5024 209.72 64.3823C209.193 66.2371 208.454 67.9792 207.501 69.6084C206.574 71.2126 205.396 72.6287 203.967 73.8569C202.539 75.0851 200.822 76.0877 198.816 76.8647C196.811 77.6668 194.468 78.1681 191.786 78.3687C184.893 78.3687 179.717 76.6266 176.258 73.1426C172.799 69.6585 171.069 64.5076 171.069 57.6899C171.069 57.5145 171.069 57.0508 171.069 56.2988C171.069 55.5218 171.082 54.5693 171.107 53.4414C171.132 52.2884 171.157 51.0101 171.182 49.6064C171.232 48.1777 171.307 46.724 171.408 45.2451C171.508 43.7663 171.621 42.3125 171.746 40.8838C171.896 39.4551 172.084 38.1517 172.31 36.9736H185.469C184.993 39.4551 184.642 42.0744 184.417 44.8315C184.191 47.5887 184.078 50.4085 184.078 53.291C184.078 55.9479 184.178 58.5923 184.379 61.2241C184.604 63.8309 184.968 66.3123 185.469 68.6685C186.397 68.7938 187.299 68.894 188.176 68.9692C189.079 69.0444 189.968 69.082 190.846 69.082C191.698 69.082 192.575 69.0444 193.478 68.9692C194.405 68.894 195.307 68.7938 196.185 68.6685C196.46 66.3123 196.661 63.8434 196.786 61.2617C196.937 58.6549 197.012 56.0231 197.012 53.3662C197.012 50.4587 196.937 47.6263 196.786 44.8691C196.661 42.0869 196.46 39.4551 196.185 36.9736H209.795C210.346 39.9062 210.71 42.6759 210.885 45.2827C211.086 47.8895 211.186 50.1704 211.186 52.1255Z" fill="white"/>
<path d="M3.504 91.136C3.504 91.44 3.552 91.736 3.648 92.024C3.552 92.216 3.336 92.312 3 92.312C2.664 92.312 2.376 92.192 2.136 91.952C1.896 91.712 1.776 91.392 1.776 90.992C1.776 90.08 2.168 89.24 2.952 88.472C3.72 87.688 4.664 87.096 5.784 86.696C6.92 86.28 8.064 86.072 9.216 86.072C14.592 86.072 17.28 88 17.28 91.856C17.28 92.864 16.976 93.768 16.368 94.568C15.76 95.352 15.048 95.928 14.232 96.296C13.432 96.664 12.648 96.848 11.88 96.848C12.776 96.848 13.568 97.048 14.256 97.448C14.96 97.848 15.528 98.368 15.96 99.008C16.408 99.648 16.816 100.36 17.184 101.144C17.568 101.912 17.944 102.688 18.312 103.472C18.68 104.256 19.08 104.968 19.512 105.608C19.944 106.248 20.496 106.768 21.168 107.168C21.856 107.568 22.64 107.768 23.52 107.768C23.92 107.768 24.248 107.688 24.504 107.528C24.744 107.544 24.864 107.68 24.864 107.936C24.864 108.48 24.304 108.752 23.184 108.752C22.064 108.752 21.064 108.544 20.184 108.128C19.304 107.712 18.592 107.168 18.048 106.496C17.504 105.824 17.008 105.08 16.56 104.264C16.128 103.464 15.72 102.664 15.336 101.864C14.952 101.064 14.544 100.328 14.112 99.656C13.696 98.984 13.16 98.44 12.504 98.024C11.848 97.608 11.096 97.4 10.248 97.4C9.832 97.4 9.624 97.176 9.624 96.728C9.624 96.536 9.688 96.392 9.816 96.296C9.944 96.2 10.088 96.152 10.248 96.152C11.736 96.152 12.912 95.72 13.776 94.856C14.64 93.976 15.072 92.976 15.072 91.856C15.072 90.288 14.544 89.128 13.488 88.376C12.432 87.624 11.112 87.248 9.528 87.248C7.96 87.248 6.56 87.624 5.328 88.376C4.112 89.112 3.504 90.032 3.504 91.136ZM6.288 90.44C6.288 89.96 6.408 89.6 6.648 89.36C6.888 89.104 7.176 88.976 7.512 88.976C7.848 88.976 8.176 89.088 8.496 89.312V99.896C8.496 101.576 8.176 102.912 7.536 103.904C6.912 104.896 5.96 105.392 4.68 105.392C3.416 105.392 2.464 105.096 1.824 104.504C1.184 103.928 0.864 103.16 0.864 102.2C0.864 100.968 1.264 100.352 2.064 100.352C2.256 100.352 2.424 100.4 2.568 100.496C2.712 100.592 2.832 100.728 2.928 100.904C2.8 101.24 2.736 101.736 2.736 102.392C2.736 103.048 2.904 103.552 3.24 103.904C3.592 104.24 4.032 104.408 4.56 104.408C5.712 104.408 6.288 103.384 6.288 101.336V90.44ZM30.9062 88.328C30.9062 87.848 31.0262 87.488 31.2662 87.248C31.5062 86.992 31.7942 86.864 32.1302 86.864C32.4822 86.864 32.8182 86.976 33.1382 87.2V100.232C33.1382 101.16 33.3222 101.904 33.6902 102.464C34.0742 103.024 34.5702 103.304 35.1782 103.304C36.6822 103.304 37.4342 101.8 37.4342 98.792C37.4502 98.696 37.5302 98.648 37.6742 98.648C37.8342 98.648 37.9542 98.672 38.0342 98.72C38.2742 98.896 38.3942 99.288 38.3942 99.896C38.3942 101.24 38.0742 102.328 37.4342 103.16C36.7942 103.992 35.9462 104.408 34.8902 104.408C32.8582 104.408 31.6182 103.352 31.1702 101.24C30.8342 102.36 30.2582 103.256 29.4422 103.928C28.6422 104.6 27.6902 104.936 26.5862 104.936C24.9382 104.92 23.7062 104.304 22.8902 103.088C22.0742 101.872 21.6662 100.232 21.6662 98.168V90.56C21.6662 89.632 21.4742 88.888 21.0902 88.328C20.7222 87.768 20.2102 87.488 19.5542 87.488C18.9142 87.488 18.4022 87.752 18.0182 88.28C17.6182 88.792 17.4182 89.712 17.4182 91.04C17.4182 91.328 17.4822 91.616 17.6102 91.904C17.4662 92.096 17.2262 92.192 16.8902 92.192C16.5542 92.192 16.2742 92.072 16.0502 91.832C15.8102 91.592 15.6902 91.2 15.6902 90.656C15.6902 89.392 16.0742 88.368 16.8422 87.584C17.6102 86.784 18.6342 86.384 19.9142 86.384C21.4342 86.384 22.4742 86.92 23.0342 87.992C23.5462 88.936 23.8022 90.272 23.8022 92V98.072C23.8022 101.848 24.7302 103.736 26.5862 103.736C27.9142 103.736 28.9622 103.104 29.7302 101.84C30.5142 100.576 30.9062 98.96 30.9062 96.992V88.328ZM54.5685 82.88C54.5685 82.64 54.8005 82.52 55.2645 82.52C55.7445 82.52 56.2325 82.784 56.7285 83.312C57.2245 83.824 57.4725 84.416 57.4725 85.088C57.4725 87.552 55.6405 88.784 51.9765 88.784C50.5045 88.784 49.1445 88.656 47.8965 88.4V99.896C47.8965 101.576 47.5765 102.912 46.9365 103.904C46.3125 104.896 45.3605 105.392 44.0805 105.392C42.8165 105.392 41.8645 105.096 41.2245 104.504C40.5845 103.928 40.2645 103.16 40.2645 102.2C40.2645 100.968 40.6645 100.352 41.4645 100.352C41.6565 100.352 41.8245 100.4 41.9685 100.496C42.1125 100.592 42.2325 100.728 42.3285 100.904C42.2005 101.24 42.1365 101.736 42.1365 102.392C42.1365 103.048 42.3045 103.552 42.6405 103.904C42.9925 104.24 43.4325 104.408 43.9605 104.408C45.0645 104.408 45.6405 103.384 45.6885 101.336V87.872C44.6325 87.568 43.6085 87.192 42.6165 86.744C41.5765 87.992 40.0005 88.616 37.8885 88.616C37.0245 88.616 36.3205 88.432 35.7765 88.064C35.2325 87.68 34.9605 87.104 34.9605 86.336C34.9605 84.8 35.9205 84.032 37.8405 84.032C39.2165 84.032 41.2245 84.544 43.8645 85.568C44.8405 85.936 46.0645 86.28 47.5365 86.6C49.0245 86.92 50.5365 87.08 52.0725 87.08C53.6085 87.08 54.6565 86.912 55.2165 86.576C55.7765 86.24 56.0565 85.744 56.0565 85.088C56.0565 84.688 55.9445 84.344 55.7205 84.056C55.5125 83.752 55.2965 83.552 55.0725 83.456L54.7605 83.312C54.6325 83.216 54.5685 83.072 54.5685 82.88ZM37.8645 87.512C39.5765 87.512 40.7685 87.088 41.4405 86.24C39.7285 85.488 38.5685 85.112 37.9605 85.112C37.3685 85.112 36.9445 85.224 36.6885 85.448C36.4165 85.656 36.2805 85.928 36.2805 86.264C36.2805 87.096 36.8085 87.512 37.8645 87.512ZM60.8805 102.968C61.0405 103.096 61.1205 103.264 61.1205 103.472C61.1205 103.68 61.0485 103.856 60.9045 104H54.4485C53.8725 104 53.5845 103.768 53.5845 103.304C53.5845 103.096 53.6565 102.92 53.8005 102.776L56.3925 102.752V88.448H54.4485C53.8725 88.448 53.5845 88.216 53.5845 87.752C53.5845 87.56 53.6565 87.376 53.8005 87.2H60.2565C60.5285 87.2 60.7365 87.272 60.8805 87.416C61.0405 87.544 61.1205 87.712 61.1205 87.92C61.1205 88.128 61.0485 88.304 60.9045 88.448H58.5525V102.752H60.2565C60.5285 102.752 60.7365 102.824 60.8805 102.968ZM91.1593 98.72C91.3193 98.848 91.3993 99.016 91.3993 99.224C91.3993 99.432 91.3273 99.608 91.1833 99.752H87.7753L89.1433 104.312C89.1753 104.424 89.1913 104.568 89.1913 104.744C89.1913 104.92 89.0793 105.136 88.8553 105.392C88.6313 105.648 88.3993 105.776 88.1593 105.776C87.7113 105.776 87.3593 105.664 87.1033 105.44L85.3993 99.752H79.2793L78.0793 103.016C77.6633 104.12 77.0633 105.072 76.2793 105.872C75.4953 106.672 74.4793 107.072 73.2313 107.072C72.2873 107.072 71.5513 106.824 71.0233 106.328C70.4793 105.832 70.2073 105.112 70.2073 104.168C70.2073 103.224 70.4393 102.376 70.9033 101.624C71.3513 100.856 71.9513 100.256 72.7033 99.824C74.2073 98.96 75.8873 98.528 77.7433 98.528L81.2473 88.64C81.4073 88.176 81.5753 87.832 81.7513 87.608C81.2553 85.944 81.0073 85.032 81.0073 84.872C81.0073 84.696 81.1193 84.504 81.3433 84.296C81.5833 84.072 81.8233 83.96 82.0633 83.96C82.5273 83.96 82.8873 84.072 83.1433 84.296L87.3913 98.528L90.5353 98.504C90.8073 98.504 91.0153 98.576 91.1593 98.72ZM73.2313 106.064C74.4313 106.064 75.4713 104.856 76.3513 102.44L77.2873 99.776C75.5273 99.776 74.1273 100.192 73.0873 101.024C72.0633 101.856 71.5513 102.952 71.5513 104.312C71.5513 104.872 71.7033 105.304 72.0073 105.608C72.3273 105.912 72.7353 106.064 73.2313 106.064ZM82.6633 89.456L79.7353 98.528H85.0153L82.6633 89.456ZM103.618 100.328C103.618 99.56 103.434 98.904 103.066 98.36C102.714 97.816 102.25 97.392 101.674 97.088C101.114 96.784 100.49 96.512 99.8021 96.272C99.1141 96.032 98.4261 95.792 97.7381 95.552C97.0501 95.296 96.4181 95 95.8421 94.664C95.2821 94.312 94.8181 93.832 94.4501 93.224C94.0981 92.616 93.9221 91.88 93.9221 91.016C93.9221 89.528 94.4661 88.36 95.5541 87.512C96.6581 86.664 98.0661 86.24 99.7781 86.24C101.506 86.24 102.882 86.632 103.906 87.416C104.93 88.2 105.442 89.056 105.442 89.984C105.442 90.624 105.314 91.104 105.058 91.424C104.818 91.728 104.53 91.88 104.194 91.88C103.57 91.88 103.17 91.76 102.994 91.52L102.922 91.4C103.082 91.192 103.162 90.792 103.162 90.2C103.162 89.288 102.778 88.576 102.01 88.064C101.242 87.536 100.346 87.272 99.3221 87.272C98.3141 87.272 97.5141 87.544 96.9221 88.088C96.3301 88.632 96.0341 89.296 96.0341 90.08C96.0341 90.864 96.2101 91.52 96.5621 92.048C96.9301 92.56 97.4021 92.96 97.9781 93.248C98.5541 93.536 99.1861 93.792 99.8741 94.016C100.578 94.24 101.274 94.488 101.962 94.76C102.666 95.016 103.306 95.336 103.882 95.72C104.458 96.088 104.922 96.616 105.274 97.304C105.642 97.992 105.826 98.824 105.826 99.8C105.826 101.512 105.218 102.824 104.002 103.736C102.786 104.648 101.258 105.104 99.4181 105.104C97.5941 105.104 96.0021 104.64 94.6421 103.712C93.2981 102.768 92.6261 101.592 92.6261 100.184C92.6261 99.528 92.7541 99.016 93.0101 98.648C93.2661 98.264 93.5701 98.072 93.9221 98.072C94.5461 98.072 94.9461 98.176 95.1221 98.384L95.1941 98.504C95.0501 98.904 94.9781 99.392 94.9781 99.968C94.9781 101.056 95.4181 102.008 96.2981 102.824C97.1941 103.64 98.3621 104.048 99.8021 104.048C100.842 104.048 101.738 103.688 102.49 102.968C103.242 102.232 103.618 101.352 103.618 100.328ZM115.229 88.232C115.517 88.232 115.749 88.32 115.925 88.496C116.101 88.656 116.189 88.832 116.189 89.024C116.189 89.216 116.141 89.328 116.045 89.36C114.445 89.36 113.205 89.96 112.325 91.16C111.445 92.36 111.005 94.072 111.005 96.296C111.005 98.504 111.485 100.376 112.445 101.912C113.405 103.432 114.741 104.192 116.453 104.192C118.165 104.192 119.525 103.384 120.533 101.768C121.557 100.152 122.069 98.12 122.069 95.672C122.069 93.208 121.469 91.168 120.269 89.552C119.085 87.92 117.533 87.104 115.613 87.104C113.693 87.104 112.053 87.656 110.693 88.76C109.349 89.848 108.645 91.152 108.581 92.672C108.517 92.8 108.365 92.864 108.125 92.864C107.709 92.832 107.501 92.56 107.501 92.048C107.501 91.536 107.605 91.016 107.813 90.488C108.021 89.944 108.357 89.4 108.821 88.856C109.285 88.312 109.829 87.824 110.453 87.392C111.077 86.944 111.853 86.584 112.781 86.312C113.709 86.04 114.709 85.904 115.781 85.904C118.357 85.904 120.413 86.832 121.949 88.688C123.501 90.528 124.277 92.864 124.277 95.696C124.277 98.528 123.565 100.816 122.141 102.56C120.733 104.288 118.837 105.152 116.453 105.152C114.085 105.152 112.213 104.328 110.837 102.68C109.477 101.032 108.797 98.808 108.797 96.008C108.797 94.696 109.005 93.52 109.421 92.48C109.853 91.44 110.405 90.624 111.077 90.032C112.437 88.832 113.821 88.232 115.229 88.232ZM140.309 86.096L141.029 86.072C143.413 86.072 145.333 86.48 146.789 87.296C148.245 88.112 148.973 89.272 148.973 90.776C148.973 91.896 148.693 92.792 148.133 93.464C147.653 94.056 147.221 94.448 146.837 94.64L146.597 94.784C146.869 94.832 147.237 94.992 147.701 95.264C148.181 95.52 148.573 95.808 148.877 96.128C149.181 96.432 149.461 96.88 149.717 97.472C149.973 98.064 150.101 98.72 150.101 99.44C150.101 101.344 149.301 102.792 147.701 103.784C146.101 104.776 143.789 105.272 140.765 105.272C138.589 105.272 136.821 104.744 135.461 103.688C134.116 102.632 133.444 101.432 133.444 100.088C133.444 99.864 133.516 99.68 133.66 99.536C133.788 99.392 133.948 99.32 134.14 99.32C134.316 99.32 134.452 99.368 134.548 99.464C134.548 100.456 134.876 101.32 135.533 102.056C136.189 102.792 137.061 103.336 138.149 103.688V87.992C137.445 88.312 136.877 88.696 136.445 89.144C136.013 89.576 135.797 89.992 135.797 90.392C135.797 90.792 135.845 91.136 135.941 91.424C135.845 91.616 135.629 91.712 135.293 91.712C134.957 91.712 134.668 91.592 134.428 91.352C134.188 91.112 134.068 90.792 134.068 90.392C134.068 89.64 134.444 88.896 135.197 88.16C135.949 87.424 136.933 86.872 138.149 86.504V85.592C138.149 85.112 138.269 84.752 138.509 84.512C138.749 84.256 139.045 84.128 139.397 84.128C139.749 84.128 140.053 84.24 140.309 84.464V86.096ZM140.765 104.072C143.149 104.072 144.933 103.696 146.117 102.944C147.301 102.192 147.893 101.024 147.893 99.44C147.893 96.72 146.069 95.36 142.421 95.36C142.261 95.36 142.125 95.288 142.013 95.144C141.901 95 141.845 94.808 141.845 94.568C141.845 94.264 142.037 94.112 142.421 94.112C144.213 94.112 145.413 93.744 146.021 93.008C146.517 92.416 146.765 91.672 146.765 90.776C146.765 89.64 146.237 88.776 145.181 88.184C144.141 87.576 142.797 87.264 141.148 87.248C140.845 87.248 140.597 87.272 140.405 87.32V104.072H140.765ZM164.734 88.328C164.734 87.848 164.854 87.488 165.094 87.248C165.334 86.992 165.622 86.864 165.958 86.864C166.31 86.864 166.646 86.976 166.966 87.2V100.232C166.966 101.16 167.15 101.904 167.518 102.464C167.902 103.024 168.398 103.304 169.006 103.304C170.51 103.304 171.262 101.8 171.262 98.792C171.278 98.696 171.358 98.648 171.502 98.648C171.662 98.648 171.782 98.672 171.862 98.72C172.102 98.896 172.222 99.288 172.222 99.896C172.222 101.24 171.902 102.328 171.262 103.16C170.622 103.992 169.774 104.408 168.718 104.408C166.686 104.408 165.446 103.352 164.998 101.24C164.662 102.36 164.086 103.256 163.27 103.928C162.47 104.6 161.518 104.936 160.414 104.936C158.766 104.92 157.534 104.304 156.718 103.088C155.902 101.872 155.494 100.232 155.494 98.168V90.56C155.494 89.632 155.302 88.888 154.918 88.328C154.55 87.768 154.038 87.488 153.382 87.488C152.742 87.488 152.23 87.752 151.846 88.28C151.446 88.792 151.246 89.712 151.246 91.04C151.246 91.328 151.31 91.616 151.438 91.904C151.294 92.096 151.054 92.192 150.718 92.192C150.382 92.192 150.102 92.072 149.878 91.832C149.638 91.592 149.518 91.2 149.518 90.656C149.518 89.392 149.902 88.368 150.67 87.584C151.438 86.784 152.462 86.384 153.742 86.384C155.262 86.384 156.302 86.92 156.862 87.992C157.374 88.936 157.63 90.272 157.63 92V98.072C157.63 101.848 158.558 103.736 160.414 103.736C161.742 103.736 162.79 103.104 163.558 101.84C164.342 100.576 164.734 98.96 164.734 96.992V88.328ZM190.605 98.72C190.765 98.848 190.845 99.016 190.845 99.224C190.845 99.432 190.773 99.608 190.629 99.752H187.221L188.589 104.312C188.621 104.424 188.637 104.568 188.637 104.744C188.637 104.92 188.525 105.136 188.301 105.392C188.077 105.648 187.845 105.776 187.605 105.776C187.157 105.776 186.805 105.664 186.549 105.44L184.845 99.752H178.725L177.525 103.016C177.109 104.12 176.509 105.072 175.725 105.872C174.941 106.672 173.925 107.072 172.677 107.072C171.733 107.072 170.997 106.824 170.469 106.328C169.925 105.832 169.653 105.112 169.653 104.168C169.653 103.224 169.885 102.376 170.349 101.624C170.797 100.856 171.397 100.256 172.149 99.824C173.653 98.96 175.333 98.528 177.189 98.528L180.693 88.64C180.853 88.176 181.021 87.832 181.197 87.608C180.701 85.944 180.453 85.032 180.453 84.872C180.453 84.696 180.565 84.504 180.789 84.296C181.029 84.072 181.269 83.96 181.509 83.96C181.973 83.96 182.333 84.072 182.589 84.296L186.837 98.528L189.981 98.504C190.253 98.504 190.461 98.576 190.605 98.72ZM172.677 106.064C173.877 106.064 174.917 104.856 175.797 102.44L176.733 99.776C174.973 99.776 173.573 100.192 172.533 101.024C171.509 101.856 170.997 102.952 170.997 104.312C170.997 104.872 171.149 105.304 171.453 105.608C171.773 105.912 172.181 106.064 172.677 106.064ZM182.109 89.456L179.181 98.528H184.461L182.109 89.456ZM206.807 86.528C206.807 86.048 206.927 85.688 207.167 85.448C207.407 85.192 207.703 85.064 208.055 85.064C208.407 85.064 208.711 85.176 208.967 85.4V98.504H211.103C211.375 98.504 211.583 98.576 211.727 98.72C211.887 98.848 211.967 99.016 211.967 99.224C211.967 99.432 211.895 99.608 211.751 99.752H208.967V104.312C208.967 104.792 208.847 105.152 208.607 105.392C208.367 105.648 208.071 105.776 207.719 105.776C207.367 105.776 207.063 105.664 206.807 105.44V99.752H199.775V101.096C199.775 103.096 199.471 104.592 198.863 105.584C198.255 106.576 197.287 107.072 195.959 107.072C195.159 107.072 194.535 106.816 194.087 106.304C193.639 105.792 193.415 105.064 193.415 104.12C193.415 102.616 193.823 101.392 194.639 100.448C195.471 99.504 196.463 98.92 197.615 98.696V88.64C197.615 88.16 197.735 87.8 197.975 87.56C198.215 87.304 198.511 87.176 198.863 87.176C199.215 87.176 199.519 87.288 199.775 87.512V98.528H206.807V86.528ZM194.519 104.192C194.519 104.8 194.647 105.264 194.903 105.584C195.175 105.904 195.551 106.064 196.031 106.064C196.527 106.064 196.911 105.72 197.183 105.032C197.455 104.344 197.599 103.096 197.615 101.288V99.944C196.703 100.152 195.959 100.624 195.383 101.36C194.807 102.096 194.519 103.04 194.519 104.192Z" fill="white"/>
</svg>
